<?xml version="1.0" encoding="UTF-8"?>
<svg width="37px" height="28px" viewBox="0 0 37 28" version="1.1" xmlns="http://www.w3.org/2000/svg" xmlns:xlink="http://www.w3.org/1999/xlink">
    <!-- Generator: Sketch 43.2 (39069) - http://www.bohemiancoding.com/sketch -->
    <title>chart-up</title>
    <desc>Created with Sketch.</desc>
    <defs></defs>
    <g id="Page-1" stroke="none" stroke-width="1" fill="none" fill-rule="evenodd">
        <g id="Tablet-Portrait" transform="translate(-366.000000, -543.000000)" fill-rule="nonzero" fill="#0085C8">
            <g id="chart-up" transform="translate(366.000000, 543.000000)">
                <path d="M35.84375,23.3333333 L4.625,23.3333333 L4.625,1.16666667 C4.625,0.522083333 4.10757812,0 3.46875,0 L1.15625,0 C0.517421875,0 0,0.522083333 0,1.16666667 L0,25.6666667 C0,26.9551042 1.03556641,28 2.3125,28 L35.84375,28 C36.4825781,28 37,27.4779167 37,26.8333333 L37,24.5 C37,23.8554167 36.4825781,23.3333333 35.84375,23.3333333 Z M33.53125,2.33333333 L24.9995703,2.33333333 C23.4545313,2.33333333 22.6805664,4.21822917 23.7732227,5.32072917 L26.1146289,7.68322917 L20.8125,13.0338542 L15.5103711,7.68395833 C14.6070508,6.7725 13.1429492,6.7725 12.2403516,7.68395833 L7.27642578,12.6926042 C6.82476562,13.1483333 6.82476562,13.8869792 7.27642578,14.3427083 L8.91107422,15.9920833 C9.36273437,16.4478125 10.0947852,16.4478125 10.5464453,15.9920833 L13.875,12.6328125 L19.1771289,17.9827083 C20.0804492,18.8941667 21.5445508,18.8941667 22.4471484,17.9827083 L29.3846484,10.9827083 L31.7260547,13.3452083 C32.8187109,14.4477083 34.6867773,13.6667708 34.6867773,12.1078125 L34.6867773,3.5 C34.6875,2.85541667 34.1700781,2.33333333 33.53125,2.33333333 Z" id="Shape"></path>
            </g>
        </g>
    </g>
</svg>