<?xml version="1.0" encoding="UTF-8"?>
<svg width="20px" height="23px" viewBox="0 0 20 23" version="1.1" xmlns="http://www.w3.org/2000/svg" xmlns:xlink="http://www.w3.org/1999/xlink">
    <!-- Generator: Sketch 43.2 (39069) - http://www.bohemiancoding.com/sketch -->
    <title>database</title>
    <desc>Created with Sketch.</desc>
    <defs></defs>
    <g id="Page-1" stroke="none" stroke-width="1" fill="none" fill-rule="evenodd">
        <g id="Tablet-Portrait" transform="translate(-43.000000, -391.000000)" fill-rule="nonzero" fill="#0085C8">
            <g id="database" transform="translate(43.000000, 391.000000)">
                <path d="M20,3.2857207 L20,5.3392793 C20,7.14900195 15.5208482,8.625 10,8.625 C4.47915179,8.625 0,7.14900195 0,5.3392793 L0,3.2857207 C0,1.47599805 4.47915179,0 10,0 C15.5208482,0 20,1.47599805 20,3.2857207 Z M20,7.90625 L20,12.5267793 C20,14.336502 15.5208482,15.8125 10,15.8125 C4.47915179,15.8125 0,14.336502 0,12.5267793 L0,7.90625 C2.1484375,9.3950957 6.08071429,10.0881953 10,10.0881953 C13.9192857,10.0881953 17.8515179,9.3950957 20,7.90625 Z M20,15.09375 L20,19.7142793 C20,21.524002 15.5208482,23 10,23 C4.47915179,23 0,21.524002 0,19.7142793 L0,15.09375 C2.1484375,16.5825957 6.08071429,17.2756953 10,17.2756953 C13.9192857,17.2756953 17.8515179,16.5825957 20,15.09375 Z" id="Shape"></path>
            </g>
        </g>
    </g>
</svg>