<?xml version="1.0" encoding="UTF-8"?>
<svg width="19px" height="15px" viewBox="0 0 19 15" version="1.1" xmlns="http://www.w3.org/2000/svg" xmlns:xlink="http://www.w3.org/1999/xlink">
    <!-- Generator: Sketch 43.2 (39069) - http://www.bohemiancoding.com/sketch -->
    <title>twitter</title>
    <desc>Created with Sketch.</desc>
    <defs></defs>
    <g id="Page-1" stroke="none" stroke-width="1" fill="none" fill-rule="evenodd" fill-opacity="0.6">
        <g id="Tablet-Portrait" transform="translate(-666.000000, -737.000000)" fill-rule="nonzero" fill="#FFFFFF">
            <g id="twitter" transform="translate(666.000000, 737.000000)">
                <path d="M16.823983,3.73710302 C16.8358858,3.90110658 16.8358858,4.0651462 16.8358858,4.22914975 C16.8358858,9.23147458 12.9690103,14.9953269 5.90148715,14.9953269 C3.72411501,14.9953269 1.7014428,14.3743997 0,13.2966568 C0.309363225,13.3317799 0.606787014,13.3434995 0.928053051,13.3434995 C2.7246451,13.3434995 4.37851327,12.7460477 5.69921261,11.7268312 C4.00967262,11.6916722 2.59378742,10.6021736 2.10595527,9.1026301 C2.34393825,9.13775312 2.58188461,9.1611925 2.8317704,9.1611925 C3.17680543,9.1611925 3.52187709,9.11431373 3.8431065,9.03234802 C2.08218627,8.68086546 0.761450315,7.15791863 0.761450315,5.31864831 L0.761450315,5.27180561 C1.27305146,5.55297002 1.86800891,5.72869326 2.49856493,5.75209659 C1.4634232,5.07260692 0.785255938,3.91282627 0.785255938,2.6007257 C0.785255938,1.89783271 0.975591048,1.25350212 1.3087599,0.691173299 C3.20057443,2.98733127 6.04424764,4.48683872 9.23291926,4.65087834 C9.17344183,4.36971393 9.13773339,4.07686589 9.13773339,3.78398179 C9.13773339,1.69867008 10.851079,0 12.9808399,0 C14.0873619,0 15.0867952,0.456887656 15.7888047,1.19493972 C16.6573437,1.03093616 17.4902109,0.714612681 18.2279288,0.281164408 C17.9423346,1.15981671 17.3355476,1.89786877 16.5383888,2.36644006 C17.3117786,2.28447434 18.0613627,2.07355596 18.7514328,1.78070792 C18.228002,2.53044361 17.5735672,3.19817753 16.823983,3.73710302 L16.823983,3.73710302 Z" id="Shape"></path>
            </g>
        </g>
    </g>
</svg>