<?xml version="1.0" encoding="UTF-8"?>
<svg width="30px" height="32px" viewBox="0 0 30 32" version="1.1" xmlns="http://www.w3.org/2000/svg" xmlns:xlink="http://www.w3.org/1999/xlink">
    <!-- Generator: Sketch 43.2 (39069) - http://www.bohemiancoding.com/sketch -->
    <title>flexible</title>
    <desc>Created with Sketch.</desc>
    <defs></defs>
    <g id="Page-1" stroke="none" stroke-width="1" fill="none" fill-rule="evenodd">
        <g id="Tablet-Portrait" transform="translate(-370.000000, -395.000000)" fill-rule="nonzero" fill="#0085C8">
            <g id="flexible" transform="translate(370.000000, 395.000000)">
                <path d="M6.65800416,13.4150487 L0.0748440748,23.1391813 C-0.117255717,23.4510721 0.0810810811,23.8565302 0.444698545,23.8964522 L13.4338877,25.2731384 L6.65800416,13.4150487 L6.65800416,13.4150487 Z M0.462162162,19.6759454 L5.15800416,12.0439766 L0.377962578,9.17582846 C0.211434511,9.07602339 0,9.19578947 0,9.38978558 L0,19.545575 C0,19.7969591 0.32993763,19.8905263 0.462162162,19.6759454 Z M1.13825364,26.4233918 L13.2629938,31.891462 C13.5935551,32.0442885 13.970894,31.8022612 13.970894,31.4385965 L13.970894,27.3422222 L1.27546778,25.9511891 C0.997920998,25.92 0.886902287,26.299883 1.13825364,26.4233918 L1.13825364,26.4233918 Z M6.2039501,10.3435478 L11.1891892,1.42721248 C11.4598753,0.986822612 10.9652807,0.475945419 10.5168399,0.732319688 L1.11081081,6.8834308 C0.956756757,6.98448343 0.961746362,7.21153996 1.11891892,7.30635478 L6.2039501,10.3435478 L6.2039501,10.3435478 Z M14.968815,10.9785575 L21.7802495,10.9785575 L15.8189189,0.475321637 C15.6237006,0.158440546 15.2962578,0 14.968815,0 C14.6413721,0 14.3139293,0.158440546 14.118711,0.475321637 L8.15738046,10.9785575 L14.968815,10.9785575 Z M29.5596674,9.17582846 L24.7796258,12.0446004 L29.4754678,19.6765692 C29.6070686,19.8911501 29.9376299,19.7975828 29.9376299,19.545575 L29.9376299,9.38978558 C29.9376299,9.19578947 29.7261954,9.07602339 29.5596674,9.17582846 L29.5596674,9.17582846 Z M23.7336798,10.3435478 L28.818711,7.30573099 C28.9765073,7.21091618 28.9808732,6.98385965 28.8268191,6.88280702 L19.42079,0.732319688 C18.9723493,0.475945419 18.4777547,0.986822612 18.7484407,1.42721248 L23.7336798,10.3435478 Z M28.6621622,25.9511891 L15.966736,27.3415984 L15.966736,31.4379727 C15.966736,31.8022612 16.3440748,32.0436647 16.6746362,31.8908382 L28.7993763,26.422768 C29.0507277,26.299883 28.9397089,25.92 28.6621622,25.9511891 L28.6621622,25.9511891 Z M23.2796258,13.4150487 L16.5043659,25.2731384 L29.4935551,23.8964522 C29.8571726,23.8559064 30.0555094,23.4510721 29.8634096,23.1391813 L23.2796258,13.4150487 L23.2796258,13.4150487 Z M14.968815,12.9746589 L8.7049896,12.9746589 L14.968815,23.9376218 L21.2326403,12.9746589 L14.968815,12.9746589 Z" id="Shape"></path>
            </g>
        </g>
    </g>
</svg>