<?xml version="1.0" encoding="UTF-8"?>
<svg width="35px" height="34px" viewBox="0 0 35 34" version="1.1" xmlns="http://www.w3.org/2000/svg" xmlns:xlink="http://www.w3.org/1999/xlink">
    <!-- Generator: Sketch 43.2 (39069) - http://www.bohemiancoding.com/sketch -->
    <title>open-source</title>
    <desc>Created with Sketch.</desc>
    <defs></defs>
    <g id="Page-1" stroke="none" stroke-width="1" fill="none" fill-rule="evenodd">
        <g id="Tablet-Portrait" transform="translate(-29.000000, -548.000000)" stroke="#0085C8" stroke-width="2" fill="#0085C8" fill-rule="nonzero">
            <g id="open-source" transform="translate(30.000000, 549.000000)">
                <path d="M0,16.7118503 C0.153024194,7.67733888 6.48024194,1.25072765 14.2245968,0.206237006 C23.4592742,-1.03118503 31.2302419,5.24906445 32.7205645,13.5850312 C34.1377016,21.4885655 29.7931452,28.8864865 22.6342742,31.8137214 C22.0155242,32.0665281 21.6762097,31.9268191 21.4366935,31.3014553 C20.2524194,28.2212058 19.0681452,25.1343035 17.883871,22.0540541 C17.677621,21.5151767 17.8173387,21.1758836 18.3495968,20.9363825 C19.9596774,20.2045738 20.9643145,18.9804574 21.2304435,17.2241164 C21.65625,14.4033264 19.6004032,11.9883576 16.9391129,11.7555094 C14.3443548,11.5293139 12.1620968,13.3322245 11.7828629,15.7272349 C11.4368952,17.9226611 12.521371,19.9650728 14.5705645,20.8964657 C15.2092742,21.1891892 15.3356855,21.4686071 15.0895161,22.1205821 C13.8985887,25.22079 12.7076613,28.3209979 11.5167339,31.4278586 C11.34375,31.8869023 10.9645161,32.0465696 10.4854839,31.8602911 C6.9858871,30.5097713 3.7391129,27.802079 1.78306452,23.9434511 C0.12641129,20.6702703 0.106451613,18.1089397 0,16.7118503 Z M1.39052419,16.585447 C1.4171371,17.0245322 1.43044355,17.5367983 1.47701613,18.0557173 C1.89616935,22.8390852 4.77701613,27.6024948 10.1927419,30.2370062 C10.4056452,30.3367983 10.4854839,30.2902287 10.5653226,30.0839917 C11.5566532,27.4827443 12.5546371,24.8814969 13.5592742,22.2802495 C13.6457661,22.0607069 13.5991935,21.9609148 13.3995968,21.8345114 C11.2971774,20.5106029 10.252621,18.6079002 10.3657258,16.1130977 C10.4322581,14.6760915 10.9844758,13.418711 11.9491935,12.3675676 C13.9451613,10.1920998 17.0721774,9.71975052 19.6336694,11.1966736 C21.7560484,12.42079 22.9270161,14.7758836 22.6409274,17.2108108 C22.4014113,19.2465696 21.3568548,20.7966736 19.6004032,21.8544699 C19.4207661,21.9609148 19.3675403,22.0474012 19.447379,22.2536383 C20.4586694,24.8615385 21.4566532,27.4694387 22.4546371,30.0839917 C22.5344758,30.2902287 22.6143145,30.3367983 22.8272177,30.2370062 C25.1891129,29.1326403 27.165121,27.5559252 28.6887097,25.4469854 C31.0040323,22.2403326 31.9554435,18.6677755 31.5030242,14.7359667 C30.5915323,6.91891892 23.5590726,0.445738046 14.5040323,1.56340956 C7.44495968,2.42827443 1.51028226,8.38253638 1.39052419,16.585447 Z" id="Shape"></path>
            </g>
        </g>
    </g>
</svg>